<svg width="495" height="91" viewBox="0 0 495 91" fill="none" xmlns="http://www.w3.org/2000/svg">
<path d="M89.4193 11.7836C87.8555 9.78483 85.1218 11.3861 83.918 12.0836C75.353 17.1311 74.0893 26.0186 71.1043 31.1223C68.7568 35.2098 64.9093 38.2098 61.4293 38.4423C58.8568 38.6261 56.0668 38.1273 53.2993 36.9236C46.523 33.9948 42.8743 30.2036 41.9855 29.5361C40.1593 28.1486 26.123 14.4798 14.6855 13.9211C14.6855 13.9211 13.2905 11.1086 12.9418 11.0598C12.1093 10.9661 11.2543 12.7511 10.6318 12.9386C10.0693 13.1373 9.08303 11.0186 8.51303 11.1123C7.93928 11.1873 7.38053 13.3098 6.26303 14.4011C5.43803 15.1998 4.44053 15.1511 3.87428 16.1373C3.67928 16.4973 3.74678 17.1311 3.52553 17.7123C3.04928 18.9123 1.45928 19.0398 1.44428 20.3261C1.44428 21.7548 2.78303 22.0286 3.95303 23.0261C4.88303 23.8211 4.94678 24.3836 6.03053 24.7548C6.99803 25.0848 8.40053 24.0536 9.64553 24.4248C10.6843 24.7286 11.6818 24.9498 11.903 26.0111C12.1055 26.9711 11.903 28.4786 10.628 28.3098C10.208 28.2536 8.38553 27.6573 6.13553 27.8973C3.41678 28.1861 0.311778 29.0561 0.0080282 32.0598C-0.145722 33.7361 1.93553 35.6973 3.96428 35.3073C5.35553 35.0411 4.69928 33.4098 5.46053 32.6223C6.46178 31.6098 12.1055 36.1623 17.3555 36.1623C19.5793 36.1623 21.2218 35.5998 22.8568 33.8936C23.0068 33.7848 23.2055 33.5111 23.438 33.4811C23.6988 33.5487 23.9461 33.6603 24.1693 33.8111C28.4105 37.1748 31.6093 43.9361 47.1568 44.0148C49.3393 44.0411 51.8443 45.0611 53.8918 46.9286C55.6918 48.5523 56.7568 51.1473 57.7805 53.7723C59.348 57.7211 62.1343 61.5311 66.3755 65.7836C66.6005 66.0386 70.088 68.7086 70.3505 68.9073C70.3955 68.9448 70.6655 69.5336 70.5493 69.8636C70.4743 72.4511 70.088 79.8761 75.668 80.1873C77.0405 80.2623 76.6993 79.3211 76.6993 78.6498C76.6805 77.3711 76.4555 76.0811 77.123 74.7498C78.0718 72.9573 75.1505 72.0911 75.2143 68.1648C75.2855 65.2248 72.7955 65.7236 71.5243 63.4773C70.8118 62.1911 70.1443 61.4823 70.2118 59.9298C70.4855 51.0048 68.273 45.1248 67.193 43.7036C66.3418 42.6011 65.6068 42.1923 66.4168 41.6786C71.0668 38.6223 72.1355 35.7761 72.1355 35.7761C74.6105 29.9973 76.8455 24.7323 79.9168 22.3886C80.5393 21.9386 82.1255 20.7386 83.1118 20.2886C85.973 18.9311 87.5105 18.1211 88.3168 17.3336C89.6518 16.0698 90.698 13.3848 89.4193 11.7836Z" fill="#ABE100"/>
<path d="M138.412 46.8795C141.718 46.8795 144.554 47.0155 146.918 47.2875C149.283 47.5596 151.271 47.9676 152.882 48.5117C154.515 49.0349 155.812 49.6941 156.775 50.4893C157.737 51.2845 158.48 52.1948 159.003 53.2201C159.527 54.2246 159.861 55.3546 160.008 56.6102C160.175 57.8658 160.259 59.226 160.259 60.6908C160.259 62.1557 160.123 63.5368 159.851 64.8343C159.6 66.1108 159.139 67.2826 158.47 68.3499C157.8 69.4171 156.89 70.3693 155.739 71.2063C154.588 72.0434 153.123 72.7549 151.344 73.3408C149.566 73.9268 147.421 74.3662 144.909 74.6592C142.419 74.9731 139.5 75.13 136.152 75.13H128.116C125.103 75.13 122.466 75.0149 120.206 74.7847C117.946 74.5545 116 74.2093 114.367 73.7489C112.735 73.2676 111.385 72.6712 110.318 71.9597C109.251 71.2273 108.393 70.3797 107.744 69.4171C107.116 68.4336 106.677 67.3245 106.426 66.0898C106.175 64.8343 106.049 63.4531 106.049 61.9464H112.076C112.076 63.8298 112.348 65.3051 112.892 66.3723C113.436 67.4396 114.336 68.2453 115.592 68.7893C116.847 69.3125 118.49 69.6473 120.52 69.7938C122.571 69.9194 125.103 69.9821 128.116 69.9821H136.152C139.667 69.9821 142.587 69.8147 144.909 69.4799C147.232 69.1451 149.084 68.6115 150.465 67.879C151.847 67.1466 152.82 66.1945 153.385 65.0226C153.95 63.8298 154.232 62.3859 154.232 60.6908C154.232 58.9958 154.033 57.5833 153.636 56.4533C153.259 55.3232 152.495 54.4234 151.344 53.7538C150.214 53.0841 148.613 52.6133 146.542 52.3412C144.47 52.0483 141.76 51.9018 138.412 51.9018H130.125C126.442 51.9018 123.282 51.7658 120.645 51.4937C118.03 51.2217 115.832 50.8345 114.054 50.3323C112.275 49.8092 110.852 49.1709 109.785 48.4176C108.717 47.6433 107.901 46.7644 107.336 45.7808C106.792 44.7973 106.436 43.7091 106.269 42.5163C106.102 41.3026 106.018 39.9947 106.018 38.5926C106.018 37.1278 106.143 35.7676 106.395 34.512C106.667 33.2564 107.158 32.1264 107.87 31.1219C108.581 30.0965 109.554 29.1862 110.789 28.391C112.024 27.5958 113.604 26.9367 115.529 26.4135C117.475 25.8694 119.808 25.4614 122.529 25.1893C125.249 24.9173 128.451 24.7813 132.134 24.7813H138.161C141.174 24.7813 143.811 24.8963 146.071 25.1265C148.331 25.3358 150.277 25.6811 151.909 26.1624C153.542 26.6228 154.891 27.2087 155.959 27.9202C157.047 28.6108 157.905 29.4478 158.533 30.4314C159.181 31.394 159.631 32.4926 159.882 33.7273C160.133 34.9619 160.259 36.3326 160.259 37.8393H154.232C154.232 35.9559 153.96 34.4806 153.416 33.4134C152.872 32.3461 151.972 31.5509 150.717 31.0278C149.461 30.4837 147.808 30.1489 145.757 30.0233C143.706 29.8768 141.174 29.8036 138.161 29.8036H132.134C128.116 29.8036 124.81 29.9501 122.215 30.243C119.62 30.5151 117.569 30.9859 116.062 31.6556C114.556 32.3252 113.509 33.225 112.924 34.3551C112.338 35.4851 112.045 36.8976 112.045 38.5926C112.045 39.639 112.118 40.5702 112.264 41.3863C112.411 42.2024 112.704 42.9244 113.143 43.5522C113.604 44.159 114.242 44.6717 115.058 45.0903C115.874 45.5088 116.952 45.8541 118.291 46.1261C119.63 46.3982 121.263 46.597 123.188 46.7225C125.134 46.8271 127.446 46.8795 130.125 46.8795H138.412ZM167.29 55.6685C167.29 51.9646 167.688 48.8989 168.483 46.4714C169.278 44.0439 170.555 42.1187 172.312 40.6957C174.07 39.2727 176.351 38.2787 179.155 37.7137C181.96 37.1278 185.371 36.8348 189.388 36.8348C193.406 36.8348 196.817 37.1278 199.621 37.7137C202.425 38.2787 204.706 39.2727 206.464 40.6957C208.222 42.1187 209.499 44.0439 210.294 46.4714C211.089 48.8989 211.487 51.9646 211.487 55.6685C211.487 59.3725 211.089 62.4487 210.294 64.897C209.499 67.3454 208.222 69.2916 206.464 70.7355C204.706 72.1794 202.425 73.2048 199.621 73.8117C196.817 74.3976 193.406 74.6906 189.388 74.6906C185.371 74.6906 181.96 74.3976 179.155 73.8117C176.351 73.2048 174.07 72.1794 172.312 70.7355C170.555 69.2916 169.278 67.3454 168.483 64.897C167.688 62.4487 167.29 59.3725 167.29 55.6685ZM173.317 55.6685C173.317 57.6775 173.39 59.4248 173.537 60.9106C173.683 62.3963 173.955 63.6729 174.353 64.7401C174.771 65.8073 175.347 66.6758 176.079 67.3454C176.812 68.0151 177.774 68.5487 178.967 68.9463C180.16 69.3439 181.604 69.6159 183.299 69.7624C185.015 69.9089 187.045 69.9821 189.388 69.9821C191.397 69.9821 193.187 69.9403 194.756 69.8566C196.346 69.752 197.728 69.5322 198.899 69.1974C200.092 68.8626 201.107 68.3917 201.944 67.7849C202.781 67.1571 203.451 66.3096 203.953 65.2423C204.476 64.1751 204.853 62.8672 205.083 61.3186C205.334 59.7492 205.46 57.8658 205.46 55.6685C205.46 53.5131 205.334 51.6821 205.083 50.1754C204.853 48.6477 204.476 47.3712 203.953 46.3458C203.451 45.3205 202.781 44.5148 201.944 43.9289C201.107 43.322 200.092 42.8721 198.899 42.5791C197.728 42.2652 196.346 42.0664 194.756 41.9827C193.187 41.899 191.397 41.8571 189.388 41.8571C187.379 41.8571 185.58 41.899 183.989 41.9827C182.42 42.0664 181.039 42.2652 179.846 42.5791C178.674 42.8721 177.67 43.322 176.833 43.9289C175.996 44.5148 175.315 45.3205 174.792 46.3458C174.29 47.3712 173.913 48.6477 173.662 50.1754C173.432 51.6821 173.317 53.5131 173.317 55.6685ZM220.527 25.7857H226.554V74H220.527V25.7857ZM242.656 37.8393V57.9286C242.656 60.1677 242.824 62.0615 243.159 63.6101C243.493 65.1377 244.163 66.3723 245.168 67.314C246.172 68.2557 247.595 68.9358 249.437 69.3544C251.278 69.7729 253.705 69.9821 256.719 69.9821C259.983 69.9821 262.652 69.7415 264.723 69.2602C266.816 68.7789 268.459 68.0988 269.651 67.2199C270.844 66.341 271.66 65.2842 272.1 64.0495C272.56 62.8149 272.79 61.4442 272.79 59.9375V37.8393H278.817V74H272.79V67.9732C272.497 68.6219 272.006 69.3439 271.315 70.1391C270.624 70.9134 269.589 71.6353 268.207 72.305C266.826 72.9746 265.037 73.5396 262.84 74C260.663 74.4604 257.954 74.6906 254.71 74.6906C252.01 74.6906 249.688 74.5232 247.741 74.1883C245.816 73.8744 244.174 73.4036 242.813 72.7758C241.474 72.1271 240.396 71.3319 239.58 70.3902C238.764 69.4485 238.136 68.3604 237.697 67.1257C237.257 65.8701 236.964 64.4785 236.818 62.9509C236.671 61.4233 236.598 59.7492 236.598 57.9286L236.63 37.8393H242.656ZM322.04 57.9286C322.04 61.0047 321.789 63.5787 321.287 65.6504C320.785 67.7012 319.937 69.3439 318.745 70.5785C317.573 71.8132 316.024 72.6921 314.099 73.2153C312.174 73.7384 309.799 74 306.973 74C304.232 74 301.93 73.7907 300.068 73.3722C298.205 72.9537 296.699 72.2422 295.548 71.2377C294.397 70.2333 293.57 68.894 293.068 67.2199C292.566 65.5458 292.315 63.4531 292.315 60.942V42.7988H284.875V37.8393H292.315V27.9516H298.341V37.8393H321.036V42.7988H298.341V60.942C298.341 62.9509 298.488 64.4994 298.781 65.5876C299.095 66.6758 299.586 67.471 300.256 67.9732C300.926 68.4754 301.805 68.7684 302.893 68.8521C304.002 68.9358 305.352 68.9777 306.942 68.9777C308.198 68.9777 309.317 68.9568 310.301 68.9149C311.305 68.873 312.174 68.7475 312.906 68.5382C313.659 68.308 314.298 67.9732 314.821 67.5338C315.344 67.0734 315.763 66.4351 316.076 65.619C316.411 64.8029 316.652 63.7775 316.798 62.5428C316.945 61.2872 317.018 59.7492 317.018 57.9286H322.04ZM332.085 37.8393H338.112V74H332.085V37.8393ZM338.112 31.8125H332.085V25.7857H338.112V31.8125ZM347.152 55.6685C347.152 51.9646 347.55 48.8989 348.345 46.4714C349.14 44.0439 350.417 42.1187 352.174 40.6957C353.932 39.2727 356.213 38.2787 359.017 37.7137C361.821 37.1278 365.232 36.8348 369.25 36.8348C373.268 36.8348 376.679 37.1278 379.483 37.7137C382.287 38.2787 384.568 39.2727 386.326 40.6957C388.084 42.1187 389.36 44.0439 390.156 46.4714C390.951 48.8989 391.348 51.9646 391.348 55.6685C391.348 59.3725 390.951 62.4487 390.156 64.897C389.36 67.3454 388.084 69.2916 386.326 70.7355C384.568 72.1794 382.287 73.2048 379.483 73.8117C376.679 74.3976 373.268 74.6906 369.25 74.6906C365.232 74.6906 361.821 74.3976 359.017 73.8117C356.213 73.2048 353.932 72.1794 352.174 70.7355C350.417 69.2916 349.14 67.3454 348.345 64.897C347.55 62.4487 347.152 59.3725 347.152 55.6685ZM353.179 55.6685C353.179 57.6775 353.252 59.4248 353.399 60.9106C353.545 62.3963 353.817 63.6729 354.215 64.7401C354.633 65.8073 355.209 66.6758 355.941 67.3454C356.674 68.0151 357.636 68.5487 358.829 68.9463C360.022 69.3439 361.466 69.6159 363.161 69.7624C364.877 69.9089 366.907 69.9821 369.25 69.9821C371.259 69.9821 373.048 69.9403 374.618 69.8566C376.208 69.752 377.589 69.5322 378.761 69.1974C379.954 68.8626 380.969 68.3917 381.806 67.7849C382.643 67.1571 383.313 66.3096 383.815 65.2423C384.338 64.1751 384.715 62.8672 384.945 61.3186C385.196 59.7492 385.322 57.8658 385.322 55.6685C385.322 53.5131 385.196 51.6821 384.945 50.1754C384.715 48.6477 384.338 47.3712 383.815 46.3458C383.313 45.3205 382.643 44.5148 381.806 43.9289C380.969 43.322 379.954 42.8721 378.761 42.5791C377.589 42.2652 376.208 42.0664 374.618 41.9827C373.048 41.899 371.259 41.8571 369.25 41.8571C367.241 41.8571 365.442 41.899 363.851 41.9827C362.282 42.0664 360.901 42.2652 359.708 42.5791C358.536 42.8721 357.532 43.322 356.694 43.9289C355.857 44.5148 355.177 45.3205 354.654 46.3458C354.152 47.3712 353.775 48.6477 353.524 50.1754C353.294 51.6821 353.179 53.5131 353.179 55.6685ZM434.54 74V53.9107C434.54 51.6716 434.373 49.7882 434.038 48.2606C433.703 46.7121 433.034 45.4669 432.029 44.5253C431.025 43.5836 429.602 42.9035 427.76 42.4849C425.919 42.0664 423.491 41.8571 420.478 41.8571C417.213 41.8571 414.535 42.0978 412.442 42.5791C410.371 43.0604 408.738 43.7405 407.545 44.6194C406.353 45.4983 405.526 46.5551 405.066 47.7898C404.626 49.0244 404.407 50.3951 404.407 51.9018V74H398.38V37.8393H404.407V43.8661C404.846 42.8407 405.474 41.9618 406.29 41.2294C407.106 40.476 408.027 39.8378 409.052 39.3146C410.078 38.7914 411.187 38.3729 412.379 38.059C413.572 37.7242 414.765 37.4731 415.958 37.3057C417.151 37.1173 418.302 36.9918 419.411 36.929C420.541 36.8662 421.566 36.8348 422.487 36.8348C425.165 36.8348 427.467 37.0022 429.393 37.3371C431.339 37.6719 432.981 38.1636 434.321 38.8124C435.681 39.4611 436.769 40.2667 437.585 41.2294C438.401 42.192 439.029 43.3115 439.469 44.588C439.929 45.8436 440.232 47.2561 440.379 48.8256C440.525 50.3742 440.599 52.0692 440.599 53.9107L440.567 74H434.54ZM469.759 57.5205C466.913 57.5205 464.413 57.4787 462.257 57.395C460.102 57.3112 458.24 57.1438 456.67 56.8927C455.121 56.6207 453.824 56.244 452.778 55.7627C451.752 55.2814 450.936 54.6431 450.329 53.8479C449.722 53.0318 449.294 52.0378 449.042 50.8659C448.791 49.6731 448.666 48.3862 448.666 47.005C448.666 45.1217 449.063 43.5417 449.859 42.2652C450.654 40.9678 451.93 39.9215 453.688 39.1263C455.446 38.3101 457.727 37.7242 460.531 37.3684C463.335 37.0127 466.746 36.8348 470.764 36.8348C474.74 36.8348 478.015 37.0441 480.589 37.4626C483.184 37.8811 485.234 38.5299 486.741 39.4088C488.269 40.2667 489.336 41.3549 489.943 42.6733C490.55 43.9916 490.853 45.5611 490.853 47.3817H484.826C484.826 46.2517 484.607 45.3309 484.167 44.6194C483.749 43.9079 483.006 43.3534 481.939 42.9558C480.871 42.5372 479.427 42.2547 477.607 42.1083C475.807 41.9408 473.526 41.8571 470.764 41.8571C467.751 41.8571 465.218 41.899 463.168 41.9827C461.117 42.0664 459.464 42.2757 458.208 42.6105C456.953 42.9453 456.053 43.458 455.509 44.1486C454.965 44.8391 454.693 45.7913 454.693 47.005C454.693 47.7165 454.734 48.4176 454.818 49.1081C454.923 49.7778 455.142 50.3323 455.477 50.7718C455.812 51.2112 456.304 51.546 456.953 51.7762C457.601 52.0064 458.48 52.1843 459.589 52.3098C460.719 52.4145 462.111 52.4773 463.764 52.4982C465.417 52.4982 467.416 52.4982 469.759 52.4982C472.605 52.4982 475.096 52.561 477.23 52.6865C479.386 52.8121 481.248 53.0318 482.817 53.3457C484.387 53.6596 485.684 54.1409 486.71 54.7896C487.735 55.4383 488.551 56.1498 489.158 56.9241C489.786 57.6775 490.225 58.5773 490.477 59.6236C490.728 60.649 490.853 61.8418 490.853 63.202C490.853 64.5622 490.728 65.7864 490.477 66.8746C490.225 67.9418 489.786 68.894 489.158 69.731C488.53 70.5472 487.672 71.2586 486.584 71.8655C485.517 72.4515 484.167 72.9328 482.535 73.3094C480.903 73.6652 478.946 73.9268 476.665 74.0942C474.405 74.2825 471.768 74.3767 468.755 74.3767C464.988 74.3767 461.818 74.1883 459.244 73.8117C456.691 73.435 454.63 72.8386 453.06 72.0225C451.491 71.1854 450.361 70.1077 449.67 68.7893C449.001 67.471 448.666 65.8597 448.666 63.9554H454.693C454.693 65.2109 454.902 66.2363 455.32 67.0315C455.76 67.8058 456.513 68.4127 457.58 68.8521C458.648 69.2916 460.081 69.595 461.881 69.7624C463.701 69.9089 465.993 69.9821 468.755 69.9821C471.266 69.9821 473.401 69.9298 475.158 69.8252C476.937 69.6996 478.423 69.5113 479.616 69.2602C480.809 69.0091 481.75 68.7056 482.441 68.3499C483.131 67.9941 483.655 67.5652 484.01 67.0629C484.366 66.5607 484.586 66.0061 484.669 65.3993C484.774 64.7715 484.826 64.0809 484.826 63.3276C484.826 62.637 484.774 62.0301 484.669 61.507C484.586 60.9629 484.377 60.4293 484.042 59.9061C483.707 59.362 483.215 58.954 482.566 58.6819C481.918 58.4099 481.028 58.1902 479.898 58.0227C478.789 57.8344 477.408 57.7088 475.755 57.6461C474.102 57.5624 472.103 57.5205 469.759 57.5205Z" fill="black"/>
</svg>
