<svg width="90" height="91" viewBox="0 0 90 91" fill="none" xmlns="http://www.w3.org/2000/svg">
<path d="M89.4193 11.7836C87.8555 9.78483 85.1218 11.3861 83.918 12.0836C75.353 17.1311 74.0893 26.0186 71.1043 31.1223C68.7568 35.2098 64.9093 38.2098 61.4293 38.4423C58.8568 38.6261 56.0668 38.1273 53.2993 36.9236C46.523 33.9948 42.8743 30.2036 41.9855 29.5361C40.1593 28.1486 26.123 14.4798 14.6855 13.9211C14.6855 13.9211 13.2905 11.1086 12.9418 11.0598C12.1093 10.9661 11.2543 12.7511 10.6318 12.9386C10.0693 13.1373 9.08303 11.0186 8.51303 11.1123C7.93928 11.1873 7.38053 13.3098 6.26303 14.4011C5.43803 15.1998 4.44053 15.1511 3.87428 16.1373C3.67928 16.4973 3.74678 17.1311 3.52553 17.7123C3.04928 18.9123 1.45928 19.0398 1.44428 20.3261C1.44428 21.7548 2.78303 22.0286 3.95303 23.0261C4.88303 23.8211 4.94678 24.3836 6.03053 24.7548C6.99803 25.0848 8.40053 24.0536 9.64553 24.4248C10.6843 24.7286 11.6818 24.9498 11.903 26.0111C12.1055 26.9711 11.903 28.4786 10.628 28.3098C10.208 28.2536 8.38553 27.6573 6.13553 27.8973C3.41678 28.1861 0.311778 29.0561 0.0080282 32.0598C-0.145722 33.7361 1.93553 35.6973 3.96428 35.3073C5.35553 35.0411 4.69928 33.4098 5.46053 32.6223C6.46178 31.6098 12.1055 36.1623 17.3555 36.1623C19.5793 36.1623 21.2218 35.5998 22.8568 33.8936C23.0068 33.7848 23.2055 33.5111 23.438 33.4811C23.6988 33.5487 23.9461 33.6603 24.1693 33.8111C28.4105 37.1748 31.6093 43.9361 47.1568 44.0148C49.3393 44.0411 51.8443 45.0611 53.8918 46.9286C55.6918 48.5523 56.7568 51.1473 57.7805 53.7723C59.348 57.7211 62.1343 61.5311 66.3755 65.7836C66.6005 66.0386 70.088 68.7086 70.3505 68.9073C70.3955 68.9448 70.6655 69.5336 70.5493 69.8636C70.4743 72.4511 70.088 79.8761 75.668 80.1873C77.0405 80.2623 76.6993 79.3211 76.6993 78.6498C76.6805 77.3711 76.4555 76.0811 77.123 74.7498C78.0718 72.9573 75.1505 72.0911 75.2143 68.1648C75.2855 65.2248 72.7955 65.7236 71.5243 63.4773C70.8118 62.1911 70.1443 61.4823 70.2118 59.9298C70.4855 51.0048 68.273 45.1248 67.193 43.7036C66.3418 42.6011 65.6068 42.1923 66.4168 41.6786C71.0668 38.6223 72.1355 35.7761 72.1355 35.7761C74.6105 29.9973 76.8455 24.7323 79.9168 22.3886C80.5393 21.9386 82.1255 20.7386 83.1118 20.2886C85.973 18.9311 87.5105 18.1211 88.3168 17.3336C89.6518 16.0698 90.698 13.3848 89.4193 11.7836Z" fill="black"/>
</svg>
